<svg width="208" height="139" viewBox="0 0 208 139" fill="none" xmlns="http://www.w3.org/2000/svg">
<style>
  /* ODD bars: start UP, go down at 50% */
  #bar1 { transform-origin: 38.2706px 66.09px; animation: bar-up   5s ease-in-out infinite 0s;    }
  #bar3 { transform-origin: 56.4819px 66.09px; animation: bar-up   5s ease-in-out infinite 0.3s;  }
  #bar5 { transform-origin: 74.6915px 66.09px; animation: bar-up   5s ease-in-out infinite 0.6s;  }

  /* EVEN bars: start DOWN, go up at 50% */
  #bar2 { transform-origin: 47.3763px 66.09px; animation: bar-down 5s ease-in-out infinite 0.15s; }
  #bar4 { transform-origin: 65.5859px 66.09px; animation: bar-down 5s ease-in-out infinite 0.45s; }
  #bar6 { transform-origin: 83.7971px 66.09px; animation: bar-down 5s ease-in-out infinite 0.75s; }

  @keyframes bar-up {
    0%,100% { transform: scaleY(1);    }
    50%      { transform: scaleY(0.45); }
  }

  @keyframes bar-down {
    0%,100% { transform: scaleY(0.45); }
    50%      { transform: scaleY(1);    }
  }
  <style>
    .primary   { fill: var(--p-surface-400, #5479F7); }
    .secondary { fill: var(--p-surface-200, #E2EAFF); }
  </style>
</style>
<g clip-path="url(#clip0_183386_25514)">
<path d="M27.2952 51.1912C27.2352 51.0509 27.1668 50.9173 27.0934 50.7886C28.321 49.8697 29.3835 48.7821 30.2626 47.5742C30.3927 47.6461 30.5261 47.7146 30.6679 47.7714C32.5644 48.5449 34.7262 47.631 35.4968 45.7332C36.2674 43.8336 35.3567 41.6684 33.4601 40.8949C33.3184 40.8381 33.1766 40.7913 33.0331 40.7529C33.2466 39.2727 33.2416 37.7507 33.0048 36.2337C33.1482 36.1936 33.29 36.1452 33.4301 36.0867C35.315 35.2898 36.199 33.1129 35.405 31.2234C34.6094 29.3338 32.436 28.4484 30.5511 29.2436C30.411 29.3038 30.2776 29.3723 30.1492 29.4458C29.2318 28.2162 28.1459 27.1503 26.9399 26.2698C27.0116 26.1395 27.08 26.0059 27.1367 25.8638C27.9074 23.9643 26.9966 21.7991 25.1001 21.0256C23.2053 20.2521 21.0419 21.1659 20.2712 23.0638C20.2145 23.2058 20.1678 23.3478 20.1295 23.4915C18.6516 23.2776 17.1337 23.281 15.6192 23.5199C15.5791 23.3762 15.5308 23.2342 15.4724 23.0939C14.6768 21.2043 12.5034 20.3189 10.6185 21.1141C8.73366 21.911 7.84962 24.0879 8.64359 25.9775C8.70364 26.1178 8.77203 26.2514 8.84542 26.3801C7.61777 27.299 6.55525 28.3866 5.67621 29.5945C5.54611 29.5226 5.41267 29.4541 5.27089 29.3973C3.37437 28.6238 1.21264 29.5377 0.442021 31.4355C-0.328597 33.3351 0.582133 35.5003 2.47865 36.2738C2.62043 36.3306 2.76221 36.3774 2.90566 36.4158C2.69216 37.896 2.69716 39.418 2.93402 40.935C2.79057 40.9751 2.64879 41.0235 2.50868 41.082C0.623833 41.8789 -0.260209 44.0558 0.533761 45.9453C1.3294 47.8349 3.50281 48.7203 5.38765 47.9251C5.52776 47.8649 5.6612 47.7964 5.78964 47.7229C6.70704 48.9525 7.79291 50.0184 8.99888 50.8989C8.92715 51.0292 8.85876 51.1628 8.80205 51.3049C8.03143 53.2044 8.94217 55.3696 10.8387 56.1431C12.7352 56.9166 14.8969 56.0028 15.6676 54.1049C15.7243 53.9629 15.7693 53.8209 15.8093 53.6772C17.2872 53.8911 18.8051 53.8877 20.3196 53.6488C20.3596 53.7925 20.408 53.9345 20.4664 54.0748C21.262 55.9644 23.4354 56.8498 25.3203 56.0546C27.2051 55.2577 28.0892 53.0808 27.2952 51.1912ZM11.6277 41.2624C10.1515 37.754 11.7928 33.711 15.2939 32.2324C18.7951 30.7539 22.8316 32.3995 24.3095 35.9079C25.7857 39.4163 24.1443 43.4594 20.6432 44.9379C17.1421 46.4165 13.1055 44.7709 11.6277 41.2624Z" class="secondary"/>
<path d="M50.2636 32.4177C50.2236 32.3175 50.1769 32.2206 50.1251 32.1287C51.0092 31.4922 51.7781 30.7354 52.4187 29.89C52.5104 29.9435 52.6038 29.9936 52.7039 30.0353C54.04 30.6101 55.5862 29.9919 56.16 28.6537C56.7338 27.3155 56.1149 25.7651 54.7805 25.1904C54.6805 25.147 54.5804 25.1135 54.4786 25.0835C54.6504 24.036 54.6688 22.955 54.5203 21.8741C54.6221 21.8474 54.7238 21.8156 54.8256 21.7755C56.175 21.2359 56.8322 19.7022 56.2934 18.3507C55.7547 16.9991 54.2234 16.3392 52.874 16.8788C52.7739 16.9189 52.6772 16.9657 52.5855 17.0175C51.9499 16.132 51.1943 15.3602 50.3503 14.7186C50.4037 14.6267 50.4537 14.5332 50.4954 14.4329C51.0692 13.0947 50.4504 11.5443 49.116 10.9696C47.7799 10.3949 46.2337 11.0131 45.6599 12.3513C45.6165 12.4515 45.5832 12.5518 45.5532 12.6537C44.5073 12.4816 43.4281 12.4632 42.3506 12.6119C42.3239 12.51 42.2922 12.4081 42.2522 12.3062C41.7134 10.9546 40.1822 10.2947 38.8328 10.8343C37.4834 11.3739 36.8262 12.9076 37.3649 14.2592C37.405 14.3594 37.4517 14.4563 37.5034 14.5482C36.6193 15.1847 35.8504 15.9415 35.2099 16.7869C35.1181 16.7334 35.0247 16.6833 34.9246 16.6416C33.5886 16.0668 32.0423 16.685 31.4685 18.0232C30.8947 19.3614 31.5136 20.9118 32.848 21.4865C32.948 21.53 33.0481 21.5634 33.1499 21.5934C32.9781 22.6409 32.9597 23.7219 33.1082 24.8028C33.0064 24.8295 32.9047 24.8613 32.8029 24.9014C31.4535 25.441 30.7963 26.9747 31.3351 28.3263C31.8739 29.6778 33.4051 30.3377 34.7545 29.7981C34.8546 29.758 34.9513 29.7112 35.0431 29.6594C35.6786 30.5449 36.4342 31.3168 37.2782 31.9583C37.2248 32.0502 37.1748 32.1437 37.1331 32.244C36.5593 33.5822 37.1781 35.1326 38.5125 35.7073C39.8486 36.282 41.3948 35.6638 41.9686 34.3256C42.012 34.2254 42.0453 34.1252 42.0754 34.0232C43.1212 34.1953 44.2004 34.2137 45.2779 34.065C45.3046 34.1669 45.3363 34.2688 45.3763 34.3707C45.9151 35.7223 47.4463 36.3822 48.7958 35.8426C50.1452 35.303 50.8024 33.7693 50.2636 32.4177ZM39.2748 25.1536C38.274 22.6426 39.495 19.7941 42.002 18.7917C44.509 17.7893 47.3513 19.0139 48.3521 21.5249C49.3529 24.036 48.1319 26.8845 45.6249 27.8869C43.1179 28.8893 40.2756 27.6647 39.2748 25.1536Z" class="secondary"/>
<path d="M27.7155 13.8465C27.6638 13.7914 27.6104 13.7396 27.5537 13.6928C27.9724 13.0596 28.286 12.3763 28.4945 11.6663C28.5679 11.678 28.6413 11.688 28.7163 11.6913C29.7271 11.7348 30.5828 10.9479 30.6245 9.93546C30.6662 8.92303 29.8823 8.06598 28.8715 8.02254C28.7964 8.0192 28.7213 8.02254 28.6479 8.02755C28.5012 7.30248 28.246 6.59579 27.8823 5.92919C27.9424 5.88575 28.0008 5.84064 28.0558 5.78885C28.8014 5.10388 28.8498 3.94109 28.1659 3.1943C27.4803 2.44751 26.3211 2.39739 25.5755 3.08403C25.5204 3.13582 25.4687 3.18928 25.422 3.24609C24.7899 2.82675 24.1076 2.51266 23.3987 2.30383C23.4104 2.23032 23.4204 2.15681 23.4221 2.08163C23.4655 1.0692 22.6798 0.212145 21.669 0.168707C20.6582 0.12527 19.8025 0.912157 19.7608 1.92458C19.7575 1.99977 19.7608 2.07495 19.7658 2.14845C19.0419 2.29547 18.3363 2.55109 17.6708 2.91529C17.6274 2.85515 17.5824 2.79668 17.5307 2.74154C16.8452 1.99475 15.6859 1.94463 14.9403 2.63128C14.1947 3.31626 14.1463 4.47904 14.8302 5.22583C14.8819 5.28097 14.9353 5.33276 14.992 5.37954C14.5733 6.01272 14.2597 6.69603 14.0512 7.40606C13.9779 7.39437 13.9045 7.38434 13.8294 7.381C12.8186 7.33757 11.9629 8.12445 11.9212 9.13688C11.8778 10.1493 12.6635 11.0064 13.6743 11.0498C13.7493 11.0531 13.8244 11.0498 13.8978 11.0448C14.0446 11.7699 14.2998 12.4766 14.6634 13.1432C14.6034 13.1866 14.545 13.2317 14.4899 13.2835C13.7443 13.9685 13.696 15.1313 14.3798 15.878C15.0654 16.6248 16.2247 16.675 16.9703 15.9883C17.0253 15.9365 17.077 15.8831 17.1237 15.8263C17.7559 16.2456 18.4381 16.5597 19.147 16.7685C19.1353 16.842 19.1253 16.9155 19.1236 16.9907C19.0803 18.0031 19.8659 18.8602 20.8767 18.9036C21.8875 18.9471 22.7432 18.1602 22.7849 17.1478C22.7882 17.0726 22.7849 16.9974 22.7799 16.9239C23.5038 16.7769 24.2094 16.5213 24.8749 16.157C24.9183 16.2172 24.9633 16.2757 25.015 16.3308C25.7006 17.0776 26.8598 17.1277 27.6054 16.4411C28.351 15.7561 28.3994 14.5933 27.7155 13.8465ZM18.7667 11.84C17.4957 10.4534 17.5857 8.29653 18.9702 7.02348C20.3546 5.75043 22.508 5.84231 23.779 7.22897C25.0501 8.61563 24.96 10.7725 23.5755 12.0455C22.1911 13.3186 20.0377 13.2267 18.7667 11.84Z" class="secondary"/>
<path d="M195.635 98.9059H163.855C163.763 98.9059 163.688 98.8307 163.688 98.7389C163.688 98.647 163.763 98.5718 163.855 98.5718H195.468V81.4708C195.468 81.3789 195.543 81.3037 195.635 81.3037C195.727 81.3037 195.802 81.3789 195.802 81.4708V98.7389C195.802 98.8307 195.727 98.9059 195.635 98.9059Z" class="primary"/>
<path d="M195.637 66.5958C196.887 66.5932 197.898 65.5753 197.896 64.3223C197.893 63.0693 196.878 62.0556 195.628 62.0582C194.378 62.0609 193.366 63.0787 193.369 64.3318C193.371 65.5848 194.387 66.5984 195.637 66.5958Z" fill="white"/>
<path d="M195.635 66.7555C194.296 66.7555 193.205 65.6628 193.205 64.3196C193.205 62.9764 194.296 61.8838 195.635 61.8838C196.974 61.8838 198.065 62.9764 198.065 64.3196C198.065 65.6628 196.974 66.7555 195.635 66.7555ZM195.635 62.2196C194.479 62.2196 193.538 63.1619 193.538 64.3213C193.538 65.4807 194.479 66.423 195.635 66.423C196.791 66.423 197.732 65.4807 197.732 64.3213C197.732 63.1619 196.791 62.2196 195.635 62.2196Z" fill="black"/>
<path d="M195.638 73.2144C196.888 73.2118 197.899 72.1939 197.896 70.9409C197.894 69.6879 196.878 68.6743 195.628 68.6769C194.378 68.6795 193.367 69.6974 193.369 70.9504C193.372 72.2034 194.387 73.2171 195.638 73.2144Z" fill="white"/>
<path d="M195.635 73.3746C194.296 73.3746 193.205 72.282 193.205 70.9388C193.205 69.5955 194.296 68.5029 195.635 68.5029C196.974 68.5029 198.065 69.5955 198.065 70.9388C198.065 72.282 196.974 73.3746 195.635 73.3746ZM195.635 68.8387C194.479 68.8387 193.538 69.781 193.538 70.9404C193.538 72.0999 194.479 73.0422 195.635 73.0422C196.791 73.0422 197.732 72.0999 197.732 70.9404C197.732 69.781 196.791 68.8387 195.635 68.8387Z" fill="black"/>
<path d="M195.636 79.8341C196.887 79.8314 197.898 78.8136 197.895 77.5605C197.893 76.3075 196.877 75.2939 195.627 75.2965C194.377 75.2991 193.366 76.317 193.368 77.57C193.371 78.823 194.386 79.8367 195.636 79.8341Z" fill="white"/>
<path d="M195.635 79.9923C194.296 79.9923 193.205 78.8997 193.205 77.5564C193.205 76.2132 194.296 75.1206 195.635 75.1206C196.974 75.1206 198.065 76.2132 198.065 77.5564C198.065 78.8997 196.974 79.9923 195.635 79.9923ZM195.635 75.4564C194.479 75.4564 193.538 76.3987 193.538 77.5581C193.538 78.7176 194.479 79.6598 195.635 79.6598C196.791 79.6598 197.732 78.7176 197.732 77.5581C197.732 76.3987 196.791 75.4564 195.635 75.4564Z" fill="black"/>
<path d="M195.635 61.0901C195.543 61.0901 195.468 61.015 195.468 60.9231V41.6168C195.468 41.5249 195.543 41.4497 195.635 41.4497C195.727 41.4497 195.802 41.5249 195.802 41.6168V60.9231C195.802 61.015 195.727 61.0901 195.635 61.0901Z" class="primary"/>
<path d="M179.704 139H145.887C145.795 139 145.72 138.925 145.72 138.833C145.72 138.741 145.795 138.666 145.887 138.666H179.537V135.308C179.537 135.216 179.612 135.141 179.704 135.141H207.833C207.925 135.141 208 135.216 208 135.308C208 135.4 207.925 135.475 207.833 135.475H179.871V138.833C179.871 138.925 179.796 139 179.704 139Z" fill="black"/>
<path d="M192.903 127.419C192.903 127.419 187.911 116.458 190.774 102.247C190.774 102.247 198.512 108.743 195.723 127.419H192.903Z" fill="white"/>
<path d="M195.723 127.586H192.903C192.838 127.586 192.778 127.548 192.751 127.489C192.701 127.379 187.769 116.314 190.611 102.214C190.623 102.155 190.664 102.108 190.719 102.088C190.775 102.068 190.836 102.08 190.881 102.118C190.961 102.185 192.866 103.814 194.449 107.767C195.904 111.397 197.335 117.759 195.887 127.444C195.875 127.526 195.805 127.586 195.722 127.586H195.723ZM193.013 127.252H195.58C196.978 117.737 195.577 111.489 194.151 107.917C192.903 104.793 191.422 103.119 190.88 102.576C188.324 115.724 192.538 126.139 193.013 127.252Z" fill="black"/>
<path d="M194.124 126.443C194.124 126.443 194.117 126.443 194.114 126.443C194.022 126.438 193.952 126.36 193.957 126.268C194.339 119.263 191.185 104.305 191.153 104.155C191.135 104.065 191.192 103.976 191.282 103.956C191.372 103.936 191.46 103.995 191.48 104.085C191.512 104.235 194.676 119.234 194.291 126.285C194.286 126.373 194.212 126.443 194.124 126.443Z" fill="black"/>
<path d="M199.848 107.682C198.829 108.746 197.743 110.122 196.831 111.863C193.662 117.903 194.816 124.024 195.363 126.276H197.433C198.035 124.644 198.599 122.808 199.046 120.778C200.172 115.674 200.167 111.145 199.848 107.682Z" fill="white"/>
<path d="M197.433 126.444H195.363C195.286 126.444 195.22 126.39 195.201 126.317C194.474 123.328 193.702 117.467 196.684 111.787C197.487 110.26 198.511 108.84 199.73 107.568C199.775 107.521 199.843 107.505 199.905 107.526C199.967 107.548 200.01 107.603 200.017 107.669C200.426 112.112 200.155 116.536 199.211 120.817C198.799 122.683 198.256 124.539 197.592 126.337C197.567 126.402 197.505 126.445 197.435 126.445L197.433 126.444ZM195.495 126.109H197.318C197.957 124.36 198.484 122.556 198.884 120.743C199.795 116.617 200.074 112.353 199.717 108.068C198.631 109.247 197.71 110.549 196.98 111.94C194.091 117.444 194.789 123.129 195.495 126.109Z" fill="black"/>
<path d="M196.329 128.487C196.241 128.487 196.167 128.418 196.162 128.328C196.019 125.678 196.124 123 196.472 120.369C196.814 117.789 197.395 115.225 198.199 112.747C198.227 112.661 198.322 112.612 198.409 112.64C198.497 112.669 198.544 112.762 198.516 112.851C197.718 115.309 197.141 117.853 196.803 120.414C196.457 123.025 196.354 125.682 196.494 128.311C196.499 128.403 196.429 128.482 196.337 128.487C196.334 128.487 196.331 128.487 196.329 128.487Z" fill="black"/>
<path d="M185.644 113.937C185.644 113.937 191.123 115.809 193.108 126.896H190.953C190.953 126.896 186.454 120.806 185.644 113.937Z" fill="white"/>
<path d="M193.108 127.065H190.953C190.9 127.065 190.85 127.04 190.82 126.996C190.775 126.935 186.286 120.793 185.479 113.957C185.472 113.9 185.495 113.843 185.539 113.806C185.584 113.77 185.644 113.76 185.697 113.778C185.924 113.857 191.293 115.81 193.272 126.866C193.28 126.915 193.267 126.965 193.235 127.003C193.203 127.041 193.156 127.063 193.106 127.063L193.108 127.065ZM191.038 126.731H192.908C191.188 117.415 186.935 114.749 185.846 114.211C186.681 120.459 190.556 126.056 191.038 126.731Z" fill="black"/>
<path d="M191.93 126.752C191.85 126.752 191.78 126.694 191.765 126.612C190.95 121.679 187.424 116.712 187.388 116.662C187.335 116.586 187.352 116.483 187.427 116.428C187.502 116.374 187.605 116.391 187.66 116.466C187.697 116.516 191.268 121.548 192.096 126.557C192.111 126.647 192.049 126.734 191.959 126.749C191.949 126.749 191.94 126.751 191.932 126.751L191.93 126.752Z" fill="black"/>
<path d="M187.759 126.017H201.28L201.583 132.422C201.658 133.993 200.406 135.308 198.836 135.308H191.115C189.258 135.308 187.752 133.799 187.754 131.938L187.759 126.017Z" fill="white"/>
<path d="M198.836 135.475H191.115C190.172 135.475 189.285 135.107 188.619 134.439C187.952 133.771 187.587 132.884 187.587 131.938L187.592 126.017C187.592 125.925 187.667 125.85 187.759 125.85H201.28C201.368 125.85 201.441 125.92 201.446 126.009L201.75 132.414C201.788 133.219 201.503 133.985 200.948 134.569C200.392 135.152 199.642 135.475 198.838 135.475H198.836ZM187.926 126.184L187.921 131.938C187.921 132.793 188.251 133.597 188.855 134.202C189.458 134.807 190.261 135.139 191.115 135.139H198.836C199.548 135.139 200.212 134.855 200.706 134.337C201.198 133.821 201.45 133.143 201.416 132.429L201.121 126.183H187.927L187.926 126.184Z" fill="black"/>
<path d="M153.038 26.1143H25.8974C22.6989 26.1143 20.1061 28.7113 20.1061 31.9148V100.812C20.1061 104.015 22.6989 106.612 25.8974 106.612H153.038C156.236 106.612 158.829 104.015 158.829 100.812V31.9148C158.829 28.7113 156.236 26.1143 153.038 26.1143Z" fill="white"/>
<path d="M153.036 106.779H25.8974C22.6114 106.779 19.9393 104.101 19.9393 100.812V31.9149C19.9393 28.6237 22.6131 25.9473 25.8974 25.9473H153.036C156.322 25.9473 158.994 28.6254 158.994 31.9149V100.81C158.994 104.101 156.32 106.778 153.036 106.778V106.779ZM25.8974 26.2814C22.7949 26.2814 20.2729 28.8091 20.2729 31.9149V100.81C20.2729 103.918 22.7966 106.444 25.8974 106.444H153.036C156.138 106.444 158.66 103.916 158.66 100.81V31.9149C158.66 28.8075 156.137 26.2814 153.036 26.2814H25.8974Z" fill="black"/>
<path d="M151.658 30.7656H27.2735C25.7986 30.7656 24.603 31.9632 24.603 33.4404V99.2866C24.603 100.764 25.7986 101.961 27.2735 101.961H151.658C153.133 101.961 154.329 100.764 154.329 99.2866V33.4404C154.329 31.9632 153.133 30.7656 151.658 30.7656Z" fill="white"/>
<path d="M151.66 102.128H27.2735C25.7089 102.128 24.4379 100.853 24.4379 99.2864V33.4385C24.4379 31.8714 25.7106 30.5967 27.2735 30.5967H151.66C153.224 30.5967 154.495 31.8714 154.495 33.4385V99.2864C154.495 100.853 153.223 102.128 151.66 102.128ZM27.2735 30.9325C25.894 30.9325 24.7715 32.0568 24.7715 33.4402V99.2881C24.7715 100.67 25.894 101.796 27.2735 101.796H151.66C153.039 101.796 154.162 100.671 154.162 99.2881V33.4385C154.162 32.0568 153.039 30.9308 151.66 30.9308H27.2735V30.9325Z" fill="black"/>
<path d="M167.578 122.061H11.3541C7.51099 122.061 4.01986 120.96 2.4119 119.243L0.1651 116.842H178.765L176.518 119.243C174.91 120.96 171.419 122.061 167.576 122.061H167.578Z" fill="white"/>
<path d="M167.578 122.228H11.3541C7.47931 122.228 3.92312 121.1 2.29015 119.358L0.0433481 116.957C-0.00168797 116.908 -0.015032 116.837 0.0116561 116.777C0.0383441 116.715 0.0983922 116.676 0.165112 116.676H178.765C178.832 116.676 178.892 116.716 178.918 116.777C178.945 116.838 178.932 116.908 178.887 116.957L176.64 119.358C175.009 121.102 171.451 122.228 167.576 122.228H167.578ZM0.552089 117.009L2.53534 119.129C4.1066 120.81 7.56938 121.894 11.3557 121.894H167.579C171.366 121.894 174.827 120.808 176.4 119.129L178.383 117.009H0.552089Z" fill="black"/>
<path d="M178.76 116.868H0.173462L26.216 106.475H152.717L178.76 116.868Z" fill="white"/>
<path d="M178.76 117.035H0.173442C0.0933777 117.035 0.0249895 116.979 0.0099775 116.9C-0.00503453 116.822 0.0383336 116.743 0.111726 116.713L26.1543 106.32C26.1743 106.311 26.1943 106.308 26.216 106.308H152.717C152.739 106.308 152.759 106.311 152.779 106.32L178.822 116.713C178.897 116.743 178.938 116.822 178.923 116.9C178.908 116.979 178.84 117.035 178.76 117.035ZM1.04247 116.701H177.891L152.686 106.642H26.2477L1.04247 116.701Z" fill="black"/>
<path d="M126.58 115.392H52.3536L63.1773 111.071H115.754L126.58 115.392Z" class="secondary"/>
<path d="M127.757 74.1609C135.862 69.2056 138.427 58.6157 133.486 50.5078C128.545 42.3998 117.969 39.8442 109.864 44.7995C101.758 49.7549 99.1934 60.3448 104.135 68.4527C109.076 76.5606 119.652 79.1163 127.757 74.1609Z" fill="white"/>
<path d="M118.823 76.8642C117.457 76.8642 116.081 76.7022 114.72 76.3731C110.215 75.2838 106.405 72.5038 103.992 68.5443C99.0109 60.3697 101.605 49.6573 109.776 44.662C117.946 39.6667 128.646 42.2529 133.627 50.4275C136.041 54.387 136.768 59.0515 135.675 63.5623C134.583 68.0732 131.802 71.8906 127.844 74.3098C125.082 75.9988 121.979 76.8659 118.823 76.8659V76.8642ZM118.8 42.45C115.776 42.45 112.715 43.2553 109.95 44.946C101.937 49.8444 99.3912 60.353 104.277 68.3689C106.644 72.2515 110.38 74.9797 114.799 76.0473C119.217 77.1148 123.787 76.3964 127.671 74.0224C131.552 71.6501 134.281 67.9061 135.352 63.4821C136.423 59.0582 135.71 54.4822 133.343 50.5996C130.144 45.3487 124.54 42.45 118.8 42.45Z" fill="black"/>
<path d="M118.86 79.3453C127.804 79.3938 135.944 73.3092 138.166 64.2257L118.865 59.5479C118.865 59.5479 118.897 76.0524 118.862 79.3453H118.86Z" class="primary"/>
<path d="M100.222 63.0347C99.2578 58.1296 100.349 53.1075 103.073 49.0879C106.816 51.6591 118.331 59.5948 118.331 59.5948C118.331 59.5948 103.228 62.4299 100.222 63.0347Z" fill="white"/>
<path d="M100.222 63.2016C100.189 63.2016 100.157 63.1916 100.128 63.1732C100.092 63.1481 100.067 63.1097 100.057 63.0662C99.106 58.223 100.154 53.094 102.932 48.9942C102.957 48.9574 102.996 48.9324 103.039 48.924C103.083 48.9157 103.128 48.924 103.164 48.9507C106.866 51.4935 118.308 59.3791 118.423 59.4576C118.478 59.496 118.507 59.5645 118.492 59.6297C118.478 59.6965 118.425 59.7466 118.36 59.76C118.208 59.7884 103.223 62.6018 100.252 63.1982C100.24 63.1999 100.23 63.2016 100.219 63.2016H100.222ZM103.118 49.3216C100.489 53.2778 99.4863 58.1845 100.354 62.8374C103.366 62.2376 115.549 59.9471 117.906 59.5044C116.018 58.2029 106.582 51.7023 103.118 49.3216Z" fill="black"/>
<path d="M133.365 92.9157C134.455 92.9157 135.338 92.0308 135.338 90.9393C135.338 89.8478 134.455 88.9629 133.365 88.9629C132.275 88.9629 131.392 89.8478 131.392 90.9393C131.392 92.0308 132.275 92.9157 133.365 92.9157Z" class="primary"/>
<path d="M127.607 92.9157C128.697 92.9157 129.58 92.0308 129.58 90.9393C129.58 89.8478 128.697 88.9629 127.607 88.9629C126.517 88.9629 125.634 89.8478 125.634 90.9393C125.634 92.0308 126.517 92.9157 127.607 92.9157Z" class="primary"/>
<path d="M121.849 92.9157C122.939 92.9157 123.822 92.0308 123.822 90.9393C123.822 89.8478 122.939 88.9629 121.849 88.9629C120.759 88.9629 119.876 89.8478 119.876 90.9393C119.876 92.0308 120.759 92.9157 121.849 92.9157Z" class="primary"/>
<path d="M116.952 91.0999H99.8766C99.8166 91.0999 99.7615 91.0681 99.7315 91.0163C99.7015 90.9645 99.7031 90.8994 99.7315 90.8493L110.72 72.2446C110.767 72.1661 110.869 72.1394 110.949 72.1862C111.029 72.2329 111.054 72.3349 111.007 72.4151L100.167 90.7691H116.949C117.04 90.7691 117.115 90.8442 117.115 90.9361C117.115 91.028 117.04 91.1032 116.949 91.1032L116.952 91.0999Z" fill="black"/>
<path d="M43.7016 43.2134H38.2706V69.5883H43.7016V43.2134Z" class="secondary"/>
<path d="M52.8073 43.2134H47.3763V69.5883H52.8073V43.2134Z" class="secondary"/>
<path d="M61.9129 43.2134H56.4819V69.5883H61.9129V43.2134Z" class="secondary"/>
<path d="M71.0169 43.2134H65.5859V69.5883H71.0169V43.2134Z" class="secondary"/>
<path d="M80.1225 43.2134H74.6915V69.5883H80.1225V43.2134Z" class="secondary"/>
<path d="M89.2281 43.2134H83.7971V69.5883H89.2281V43.2134Z" class="secondary"/>
<rect id="bar1" x="38.2706" y="55.0435" width="5.431" height="11.048" class="primary" transform-origin="38.2706 66.09" class="chart-bar" style="animation-delay:0s"/>
<rect id="bar2" x="47.3763" y="51.689" width="5.431" height="14.403" class="primary" transform-origin="47.3763 66.09" class="chart-bar" style="animation-delay:0.1s"/>
<rect id="bar3" x="56.4819" y="46.7119" width="5.431" height="19.380" class="primary" transform-origin="56.4819 66.09" class="chart-bar" style="animation-delay:0.2s"/>
<rect id="bar4" x="65.5859" y="55.0435" width="5.431" height="11.048" class="primary" transform-origin="65.5859 66.09" class="chart-bar" style="animation-delay:0.3s"/>
<rect id="bar5" x="74.6915" y="50.9536" width="5.431" height="15.138" class="primary" transform-origin="74.6915 66.09" class="chart-bar" style="animation-delay:0.4s"/>
<rect id="bar6" x="83.7971" y="54.2314" width="5.431" height="11.862" class="primary" transform-origin="83.7971 66.09" class="chart-bar" style="animation-delay:0.5s"/>
<path d="M207.833 38.4739V0.166992L140.534 0.166992V38.4739L207.833 38.4739Z" fill="white"/>
<path d="M207.833 38.641H140.534C140.443 38.641 140.367 38.5658 140.367 38.4739V0.167067C140.367 0.0751803 140.443 0 140.534 0H207.833C207.925 0 208 0.0751803 208 0.167067V38.4739C208 38.5658 207.925 38.641 207.833 38.641ZM140.701 38.3069H207.666V0.334135H140.701V38.3069Z" fill="black"/>
<path d="M170.633 30.1862C176.534 24.2757 176.534 14.693 170.633 8.78258C164.732 2.87214 155.165 2.87214 149.264 8.78258C143.363 14.693 143.363 24.2757 149.264 30.1862C155.165 36.0966 164.732 36.0966 170.633 30.1862Z" class="secondary"/>
<path d="M162.569 3.87109C167.963 4.78328 172.668 8.58072 174.455 14.1307L159.987 18.8036L162.569 3.87109Z" class="primary"/>
<path d="M166.241 23.0277C168.243 19.5506 167.052 15.1066 163.58 13.1016C160.109 11.0965 155.672 12.2898 153.67 15.7668C151.668 19.2438 152.86 23.6879 156.331 25.6929C159.803 27.6979 164.24 26.5047 166.241 23.0277Z" fill="white"/>
<path d="M182.61 16.1855H179.144V34.4293H182.61V16.1855Z" class="secondary"/>
<path d="M187.879 24.0977H184.413V34.4291H187.879V24.0977Z" class="secondary"/>
<path d="M193.148 11.3369H189.682V34.429H193.148V11.3369Z" class="secondary"/>
<path d="M198.417 16.1855H194.951V34.4293H198.417V16.1855Z" class="secondary"/>
<path d="M203.687 7.83203H200.22V34.4291H203.687V7.83203Z" class="secondary"/>
<path d="M183.09 18.4243H126.345C125.159 18.4243 124.198 19.3866 124.198 20.5745V54.6295C124.198 55.8173 125.159 56.7796 126.345 56.7796H183.09C184.276 56.7796 185.237 55.8173 185.237 54.6295V20.5745C185.237 19.3866 184.276 18.4243 183.09 18.4243Z" fill="white"/>
<path d="M183.09 56.9468H126.345C125.069 56.9468 124.031 55.9076 124.031 54.6295V20.5745C124.031 19.2965 125.069 18.2573 126.345 18.2573H183.09C184.366 18.2573 185.404 19.2965 185.404 20.5745V54.6295C185.404 55.9076 184.366 56.9468 183.09 56.9468ZM126.345 18.5915C125.252 18.5915 124.365 19.4819 124.365 20.5745V54.6295C124.365 55.7238 125.254 56.6126 126.345 56.6126H183.09C184.183 56.6126 185.07 55.7222 185.07 54.6295V20.5745C185.07 19.4803 184.181 18.5915 183.09 18.5915H126.345Z" fill="black"/>
<path d="M185.238 24.9567H124.2C124.108 24.9567 124.033 24.8815 124.033 24.7896C124.033 24.6977 124.108 24.6226 124.2 24.6226H185.238C185.33 24.6226 185.405 24.6977 185.405 24.7896C185.405 24.8815 185.33 24.9567 185.238 24.9567Z" fill="black"/>
<path d="M129.867 23.2258C129.108 23.2258 128.49 22.6076 128.49 21.8458C128.49 21.084 129.107 20.4658 129.867 20.4658C130.628 20.4658 131.245 21.084 131.245 21.8458C131.245 22.6076 130.628 23.2258 129.867 23.2258ZM129.867 20.8016C129.292 20.8016 128.823 21.2711 128.823 21.8475C128.823 22.4238 129.292 22.8933 129.867 22.8933C130.443 22.8933 130.912 22.4238 130.912 21.8475C130.912 21.2711 130.443 20.8016 129.867 20.8016Z" fill="black"/>
<path d="M133.4 23.2258C132.641 23.2258 132.022 22.6076 132.022 21.8458C132.022 21.084 132.64 20.4658 133.4 20.4658C134.161 20.4658 134.778 21.084 134.778 21.8458C134.778 22.6076 134.161 23.2258 133.4 23.2258ZM133.4 20.8016C132.825 20.8016 132.356 21.2711 132.356 21.8475C132.356 22.4238 132.825 22.8933 133.4 22.8933C133.976 22.8933 134.444 22.4238 134.444 21.8475C134.444 21.2711 133.976 20.8016 133.4 20.8016Z" fill="black"/>
<path d="M136.931 23.0606C137.6 23.0606 138.142 22.5175 138.142 21.8477C138.142 21.1778 137.6 20.6348 136.931 20.6348C136.263 20.6348 135.72 21.1778 135.72 21.8477C135.72 22.5175 136.263 23.0606 136.931 23.0606Z" class="primary"/>
<path d="M179.29 27.4395H134.171V51.5406H179.29V27.4395Z" class="secondary"/>
<path d="M178.54 54.7765H130.146C130.054 54.7765 129.979 54.7013 129.979 54.6094V31.4405C129.979 31.3486 130.054 31.2734 130.146 31.2734C130.238 31.2734 130.313 31.3486 130.313 31.4405V54.4423H178.54C178.631 54.4423 178.707 54.5175 178.707 54.6094C178.707 54.7013 178.631 54.7765 178.54 54.7765Z" fill="black"/>
<path d="M136.439 53.4383H132.158C132.066 53.4383 131.991 53.3631 131.991 53.2712V37.7022C131.991 37.6103 132.066 37.5352 132.158 37.5352H136.439C136.531 37.5352 136.606 37.6103 136.606 37.7022V53.2712C136.606 53.3631 136.531 53.4383 136.439 53.4383ZM132.324 53.1042H136.272V37.8693H132.324V53.1042Z" fill="black"/>
<path d="M143.178 53.4384H138.896C138.805 53.4384 138.729 53.3633 138.729 53.2714V44.9063C138.729 44.8144 138.805 44.7393 138.896 44.7393H143.178C143.27 44.7393 143.345 44.8144 143.345 44.9063V53.2714C143.345 53.3633 143.27 53.4384 143.178 53.4384ZM139.063 53.1043H143.011V45.0734H139.063V53.1043Z" fill="black"/>
<path d="M149.917 53.438H145.635C145.543 53.438 145.468 53.3629 145.468 53.271V41.6514C145.468 41.5596 145.543 41.4844 145.635 41.4844H149.917C150.009 41.4844 150.084 41.5596 150.084 41.6514V53.271C150.084 53.3629 150.009 53.438 149.917 53.438ZM145.802 53.1039H149.75V41.8185H145.802V53.1039Z" fill="black"/>
<path d="M156.655 53.4385H152.374C152.282 53.4385 152.207 53.3633 152.207 53.2714V36.5596C152.207 36.4678 152.282 36.3926 152.374 36.3926H156.655C156.747 36.3926 156.822 36.4678 156.822 36.5596V53.2714C156.822 53.3633 156.747 53.4385 156.655 53.4385ZM152.541 53.1043H156.489V36.7267H152.541V53.1043Z" fill="black"/>
<path d="M163.288 53.4381H159.223C159.131 53.4381 159.056 53.3629 159.056 53.271V33.0626C159.056 32.9707 159.131 32.8955 159.223 32.8955H163.288C163.379 32.8955 163.454 32.9707 163.454 33.0626V53.271C163.454 53.3629 163.379 53.4381 163.288 53.4381ZM159.389 53.104H163.121V33.2296H159.389V53.104Z" fill="black"/>
<path d="M170.135 53.4384H165.853C165.761 53.4384 165.686 53.3632 165.686 53.2713V31.9903C165.686 31.8984 165.761 31.8232 165.853 31.8232H170.135C170.226 31.8232 170.301 31.8984 170.301 31.9903V53.2713C170.301 53.3632 170.226 53.4384 170.135 53.4384ZM166.02 53.1043H169.968V32.1574H166.02V53.1043Z" fill="black"/>
<path d="M176.873 53.4384H172.592C172.5 53.4384 172.425 53.3632 172.425 53.2713V34.6417C172.425 34.5498 172.5 34.4746 172.592 34.4746H176.873C176.965 34.4746 177.04 34.5498 177.04 34.6417V53.2713C177.04 53.3632 176.965 53.4384 176.873 53.4384ZM172.758 53.1043H176.707V34.8087H172.758V53.1043Z" fill="black"/>
<path d="M52.5021 115.34L47.0744 115.32C46.9827 115.32 46.9076 115.245 46.9076 115.153C46.9076 115.061 46.9827 114.986 47.0744 114.986L52.5021 115.006C52.5938 115.006 52.6689 115.081 52.6689 115.173C52.6689 115.265 52.5938 115.34 52.5021 115.34Z" fill="black"/>
<path d="M90.4875 136.82C84.6812 129.673 68.1496 109.392 68.1496 109.392L70.7734 104.098C75.0885 96.7987 69.0703 87.7386 60.682 88.9031L40.7877 91.6664L31.9272 93.0196L10.4434 93.6311C6.94222 107.585 15.3473 112.034 19.8843 113.397C24.98 115.443 37.5034 115.392 43.2513 115.248C42.5341 116.571 42.5241 118.192 43.2863 119.53C45.7433 123.849 50.9475 130.758 53.6163 134.222C54.2768 135.079 55.6346 134.783 55.8814 133.729L58.6587 126.206L65.0204 132.995C66.7301 135.299 69.5874 137.023 72.3196 137.383L89.3716 138.819C90.4775 138.965 91.1897 137.683 90.4858 136.818L90.4875 136.82Z" class="primary"/>
<path d="M57.9631 125.94C57.9197 125.94 57.8764 125.923 57.8447 125.89L47.6815 115.577L43.7567 115.572C43.665 115.572 43.5899 115.497 43.5899 115.405C43.5899 115.313 43.665 115.238 43.7567 115.238L47.7516 115.243C47.7966 115.243 47.8383 115.261 47.87 115.293L58.0832 125.654C58.1482 125.72 58.1466 125.827 58.0832 125.89C58.0515 125.922 58.0081 125.938 57.9664 125.938L57.9631 125.94Z" fill="black"/>
<path d="M71.0203 132.777C69.4206 132.777 67.7743 132.676 66.143 132.432C66.0513 132.419 65.9896 132.334 66.0029 132.242C66.0163 132.15 66.103 132.088 66.1931 132.102C74.8517 133.403 83.964 130.57 84.054 130.541C84.1424 130.513 84.2359 130.563 84.2625 130.65C84.2909 130.738 84.2409 130.832 84.1541 130.859C84.0791 130.882 77.9908 132.777 71.0203 132.777Z" fill="black"/>
<path d="M67.8143 108.934C67.7659 108.934 67.7176 108.913 67.6842 108.871L61.8562 101.573C58.9289 97.908 54.3919 95.9333 49.7182 96.2908L24.4029 98.2255C24.3095 98.2322 24.2311 98.1637 24.2244 98.0718C24.2177 97.9799 24.2861 97.8997 24.3778 97.893L49.6931 95.9584C54.477 95.5925 59.1207 97.614 62.1164 101.366L67.9444 108.664C68.0028 108.736 67.9911 108.841 67.9177 108.899C67.8877 108.924 67.851 108.936 67.8143 108.936V108.934Z" fill="black"/>
<path d="M12.5034 98.2871L18.8368 70.193C18.8368 70.193 30.5361 69.9541 34.6478 70.8847C34.6478 70.8847 36.7645 88.2246 36.9746 92.3294L12.5034 98.2854V98.2871Z" fill="white"/>
<path d="M42.2338 91.3839C42.2338 91.3839 38.7444 71.4378 34.6478 70.8848L35.315 91.3839H42.2338Z" fill="white"/>
<path d="M42.2339 91.5507H35.315C35.2249 91.5507 35.1515 91.4789 35.1482 91.3886L34.8396 82.0696C34.8363 81.9777 34.908 81.9009 35.0014 81.8975C35.0948 81.8975 35.1699 81.966 35.1732 82.0596L35.4768 91.2165H42.0354C41.6601 89.1516 38.3591 71.5711 34.6261 71.0499C34.5344 71.0365 34.471 70.953 34.4843 70.8611C34.4977 70.7692 34.5811 70.7057 34.6728 70.7191C38.8578 71.3021 42.2572 90.5366 42.4007 91.3552C42.409 91.4037 42.3957 91.4538 42.364 91.4922C42.3323 91.5306 42.2856 91.5524 42.2355 91.5524L42.2339 91.5507Z" fill="black"/>
<path d="M59.2041 92.104H27.4887V91.1467C27.4887 90.3047 28.1693 89.623 29.0099 89.623H61.4326L61.1724 90.592C60.9322 91.4842 60.1249 92.104 59.2025 92.104H59.2041Z" fill="black"/>
<path d="M60.1098 90.9812H40.9762C40.1589 90.9812 39.5584 90.2127 39.7552 89.4191L43.3714 74.8074C43.5099 74.246 44.0136 73.8501 44.5924 73.8501H63.7261C64.5434 73.8501 65.1439 74.6186 64.9471 75.4122L61.3308 90.0239C61.1924 90.5852 60.6886 90.9812 60.1098 90.9812Z" fill="black"/>
<path d="M53.6147 80.1218C53.9638 80.1218 54.2468 79.8384 54.2468 79.4887C54.2468 79.139 53.9638 78.8555 53.6147 78.8555C53.2655 78.8555 52.9825 79.139 52.9825 79.4887C52.9825 79.8384 53.2655 80.1218 53.6147 80.1218Z" class="primary"/>
<path d="M34.6478 71.0518C34.6478 71.0518 34.6361 71.0518 34.6311 71.0518L28.9098 70.4687C28.8181 70.4587 28.7514 70.3768 28.7614 70.2849C28.7714 70.1931 28.8514 70.1262 28.9449 70.1362L34.6661 70.7193C34.7578 70.7293 34.8246 70.8112 34.8146 70.9031C34.8062 70.99 34.7328 71.0534 34.6494 71.0534L34.6478 71.0518Z" fill="black"/>
<path d="M26.0459 77.1579C26.0359 77.1579 26.0242 77.1579 26.0142 77.1546C25.764 77.1145 25.1368 76.2357 22.82 72.6822C22.1578 71.6647 21.4722 70.6139 21.3388 70.4702C21.2921 70.4401 21.2604 70.3883 21.2604 70.3282C21.2604 70.2363 21.3354 70.1611 21.4272 70.1611C21.5673 70.1611 21.5756 70.1611 23.1002 72.5001C24.0409 73.9435 25.5688 76.2875 26.0142 76.7603C26.2344 76.3192 26.8198 74.6185 27.3119 73.0531C27.3319 72.9913 27.3836 72.9461 27.447 72.9378C27.5121 72.9278 27.5738 72.9578 27.6088 73.0113C28.4595 74.291 29.4269 75.6894 29.8139 76.1722C29.9557 75.3285 30.1642 72.3948 30.2743 70.522C30.2793 70.4301 30.3577 70.3583 30.4511 70.365C30.5428 70.37 30.6129 70.4502 30.6079 70.542C30.2626 76.4211 30.0691 76.5632 29.9974 76.6166C29.9573 76.6467 29.8956 76.6584 29.8473 76.6467C29.7772 76.6283 29.5937 76.5832 27.5237 73.4874C27.1301 74.7254 26.4028 76.9274 26.1643 77.1195C26.1309 77.1462 26.0892 77.1613 26.0475 77.1613L26.0459 77.1579Z" fill="black"/>
<path d="M33.9422 89.625C33.9422 89.625 30.4511 83.6339 25.6822 85.4065C20.9134 87.1791 14.1146 91.4376 14.1146 91.4376C14.1146 91.4376 20.3913 74.36 18.8384 70.1934C18.8384 70.1934 10.6168 72.666 6.81378 84.9771C3.01073 97.2883 8.68361 101.47 12.7085 101.542C16.7334 101.614 26.8231 90.9782 28.4128 90.9815L33.9438 89.6233L33.9422 89.625Z" fill="white"/>
<path d="M9.74779 100.929C9.7211 100.929 9.69442 100.922 9.6694 100.908C7.61442 99.8192 3.20588 96.0802 6.65198 84.9251C8.62856 78.5281 11.8161 74.8209 14.1413 72.8395C16.67 70.6843 18.7016 70.0578 18.7884 70.0311C18.805 70.0261 18.8184 70.0244 18.8384 70.0244L23.4137 70.0645C23.5055 70.0645 23.5805 70.1414 23.5789 70.2332C23.5789 70.3251 23.4955 70.397 23.4104 70.3986L18.8618 70.3585C18.6299 70.4337 16.68 71.1103 14.3431 73.1068C12.0563 75.0598 8.92046 78.7136 6.97057 85.0237C3.59953 95.9382 7.84293 99.5619 9.82452 100.613C9.90625 100.656 9.93628 100.756 9.89458 100.838C9.86455 100.895 9.80617 100.927 9.74779 100.927V100.929Z" fill="black"/>
<path d="M21.9142 96.0888C21.8658 96.0888 21.8191 96.0687 21.7858 96.0286C21.7274 95.9568 21.7374 95.8516 21.8075 95.7931C22.4013 95.3019 22.9817 94.8124 23.5372 94.3463C26.191 92.1159 27.7355 90.8429 28.3894 90.8145L33.6786 89.5164C33.0315 88.519 29.8422 84.0366 25.7406 85.5619C21.0418 87.3077 14.2714 91.5345 14.203 91.578C14.143 91.6164 14.0646 91.6114 14.0095 91.5663C13.9545 91.5212 13.9328 91.446 13.9578 91.3792C13.9712 91.3441 15.2856 87.7588 16.5466 83.5337C16.5733 83.4451 16.665 83.395 16.7534 83.4217C16.8418 83.4485 16.8919 83.542 16.8652 83.6289C15.8627 86.9903 14.8252 89.9474 14.4332 91.0434C15.9745 90.1011 21.5623 86.7581 25.6238 85.2495C30.4677 83.4485 34.0506 89.4796 34.0856 89.5397C34.1123 89.5849 34.1157 89.64 34.0956 89.6884C34.0756 89.7369 34.0323 89.7736 33.9822 89.7853L28.4511 91.1436C28.4378 91.1469 28.4261 91.1486 28.4111 91.1486C27.8606 91.1486 25.8657 92.826 23.7523 94.6019C23.1969 95.0697 22.6148 95.5575 22.021 96.0504C21.9893 96.0754 21.9526 96.0888 21.9142 96.0888Z" fill="black"/>
<path d="M29.6554 90.2878C29.5871 90.2878 29.522 90.2443 29.4986 90.1758C29.1951 89.3004 28.5079 88.5553 27.6605 88.1827C27.5754 88.146 27.5371 88.0474 27.5754 87.9622C27.6121 87.877 27.7105 87.8402 27.7956 87.877C28.7264 88.2863 29.4803 89.1049 29.8139 90.0656C29.8439 90.1524 29.7989 90.2477 29.7105 90.2778C29.6921 90.2844 29.6738 90.2878 29.6554 90.2878Z" fill="black"/>
<path d="M31.3934 89.9387C31.3217 89.9387 31.255 89.8919 31.2333 89.8201C30.9131 88.7492 30.1191 87.8253 29.1083 87.3492C29.0249 87.3091 28.9899 87.2105 29.0282 87.127C29.0666 87.0435 29.1667 87.0084 29.2501 87.0468C30.3459 87.563 31.205 88.5638 31.5519 89.7249C31.5786 89.8134 31.5286 89.907 31.4401 89.932C31.4235 89.9371 31.4085 89.9387 31.3918 89.9387H31.3934Z" fill="black"/>
<path d="M27.4904 92.104V91.1467C27.4904 90.3047 28.1709 89.623 29.0116 89.623H35.315L27.4904 92.104Z" fill="black"/>
<path d="M11.6243 93.2954C11.5709 93.2954 11.5176 93.2704 11.4859 93.2219C11.4342 93.1451 11.4542 93.0415 11.5309 92.9897L14.0212 91.2973C14.098 91.2455 14.2014 91.2656 14.2531 91.3424C14.3048 91.4193 14.2848 91.5229 14.208 91.5746L11.7177 93.267C11.6894 93.2871 11.656 93.2954 11.6243 93.2954Z" fill="black"/>
<path d="M25.6823 92.8225C25.6155 92.8225 25.5538 92.7824 25.5271 92.7173L23.0702 86.611C23.0351 86.5258 23.0768 86.4289 23.1619 86.3938C23.247 86.3587 23.3454 86.4005 23.3787 86.4857L25.8357 92.592C25.8707 92.6772 25.829 92.7741 25.744 92.8092C25.724 92.8175 25.7023 92.8209 25.6823 92.8209V92.8225Z" fill="black"/>
<path d="M26.1793 66.2823C26.1793 66.2823 24.93 66.8453 24.513 65.8429C23.7674 64.0453 21.9709 63.5608 21.2687 61.5409C20.5665 59.5211 21.3571 54.7797 23.4604 55.3945C23.4604 55.3945 24.9516 52.7599 26.9683 52.1467C28.9849 51.5319 29.6871 53.2009 29.6871 53.2009C29.6871 53.2009 32.2291 51.709 34.2458 52.4107C36.2624 53.1124 35.1148 56.3535 35.1148 56.3535C35.1148 56.3535 37.048 56.5055 37.0513 58.908C37.0547 61.4925 33.8738 62.8858 31.8572 63.5875C29.8406 64.2892 26.1776 66.2823 26.1776 66.2823H26.1793Z" fill="black"/>
<path d="M26.1626 63.2534L23.412 70.2335L27.4703 73.1037L28.9265 70.302L30.5961 65.5155L26.1626 63.2534Z" fill="white"/>
<path d="M27.4703 73.2706C27.437 73.2706 27.4019 73.2606 27.3736 73.2406L23.317 70.372C23.2536 70.3269 23.2303 70.2467 23.2586 70.1749L26.0092 63.1948C26.0258 63.1514 26.0609 63.1163 26.1059 63.0996C26.1493 63.0829 26.1993 63.0862 26.241 63.1062L30.6746 65.3683C30.7496 65.4068 30.7846 65.4936 30.7563 65.5722L29.0866 70.3586C29.0866 70.3586 29.0816 70.3737 29.0766 70.3804L27.6204 73.1821C27.5988 73.2255 27.5587 73.2556 27.512 73.2673C27.4987 73.2706 27.4853 73.2723 27.472 73.2723L27.4703 73.2706ZM23.6156 70.1732L27.4103 72.8563L28.773 70.235L30.391 65.5972L26.2493 63.4855L23.6156 70.1732Z" fill="black"/>
<path d="M34.0339 62.6902C33.9322 63.7511 33.637 64.8136 33.0231 65.6841C32.4093 66.5545 31.4485 67.2127 30.3894 67.3063C29.4703 67.3881 28.5429 67.0423 27.8223 66.4659C27.1001 65.8912 26.5713 65.101 26.196 64.2556C25.2336 64.3174 24.2711 63.6525 23.9892 62.7286C23.8258 62.1957 23.8941 61.5675 24.2678 61.1549C24.6414 60.7422 25.347 60.6319 25.7656 60.9978C26.0042 61.2067 26.1259 61.5291 26.3728 61.7279C26.648 61.9501 27.045 61.9768 27.3803 61.8682C27.7172 61.758 28.0008 61.5291 28.2476 61.2751C29.0249 60.4766 29.497 59.3873 29.5503 58.2729C29.5453 58.3782 30.0274 58.6756 30.1108 58.7341C30.3226 58.8811 30.5478 59.008 30.783 59.115C31.245 59.3271 31.7421 59.4641 32.2475 59.5159C32.5044 59.5427 32.7629 59.5493 33.0198 59.5326C33.225 59.5193 33.5152 59.4124 33.7137 59.4658C34.129 59.5794 34.0373 60.3696 34.054 60.6887C34.089 61.3537 34.099 62.0219 34.0356 62.6869L34.0339 62.6902Z" fill="white"/>
<path d="M30.1225 67.4852C29.2968 67.4852 28.4344 67.1694 27.7155 66.598C27.0567 66.0734 26.5096 65.3434 26.0876 64.4295C25.0818 64.4395 24.1227 63.7495 23.8257 62.7805C23.6306 62.1407 23.7507 61.4757 24.1393 61.0447C24.593 60.5435 25.402 60.4633 25.8707 60.8743C26.0008 60.9879 26.0959 61.1266 26.1876 61.2586C26.2777 61.3889 26.3628 61.5108 26.4712 61.5994C26.683 61.7698 27.01 61.8132 27.3235 61.7113C27.5871 61.6261 27.8406 61.4507 28.1225 61.16C28.8698 60.3915 29.3268 59.3373 29.3785 58.2664C29.3835 58.1745 29.4636 58.1027 29.5537 58.1077C29.6287 58.111 29.6904 58.1645 29.7071 58.2346C29.7388 58.2747 29.8422 58.3633 30.1408 58.5588C30.1675 58.5755 30.1892 58.5905 30.2009 58.5988C30.4027 58.7375 30.6212 58.8611 30.848 58.9664C31.2934 59.1719 31.7688 59.3022 32.2608 59.354C32.5094 59.3807 32.7596 59.3857 33.0048 59.369C33.0648 59.3657 33.1415 59.3506 33.2216 59.3339C33.3917 59.3005 33.5852 59.2621 33.752 59.3072C34.2174 59.4342 34.2157 60.069 34.2141 60.4884C34.2141 60.5636 34.2141 60.6304 34.2157 60.6822C34.2574 61.4791 34.2524 62.1223 34.1974 62.7054C34.0806 63.9316 33.7303 64.9675 33.1566 65.7794C32.4743 66.7467 31.4435 67.3782 30.401 67.4718C30.3076 67.4801 30.2142 67.4835 30.1208 67.4835L30.1225 67.4852ZM26.1943 64.0903C26.2594 64.0903 26.3194 64.1288 26.3461 64.1889C26.7531 65.1028 27.2835 65.8245 27.924 66.3357C28.6563 66.9205 29.5487 67.2128 30.3727 67.1393C31.3201 67.0558 32.2592 66.4744 32.8863 65.5873C33.4268 64.8221 33.757 63.8414 33.8688 62.6736C33.9222 62.1073 33.9288 61.4808 33.8871 60.7006C33.8838 60.6421 33.8838 60.5686 33.8838 60.4867C33.8838 60.1877 33.8871 59.6881 33.6686 59.6297C33.5769 59.6046 33.4251 59.6347 33.29 59.6614C33.2033 59.6781 33.1115 59.6965 33.0298 59.7015C32.7662 59.7182 32.496 59.7132 32.2291 59.6848C31.7021 59.6297 31.1917 59.4893 30.7129 59.2688C30.4694 59.1569 30.2342 59.0232 30.0157 58.8728L29.9623 58.8378C29.8506 58.7642 29.7588 58.7024 29.6838 58.6473C29.552 59.6698 29.0833 60.6538 28.3661 61.3922C28.0441 61.723 27.7472 61.9252 27.4303 62.0271C27.0116 62.1641 26.5646 62.0989 26.266 61.8583C26.1193 61.7397 26.0158 61.591 25.9158 61.4473C25.8324 61.3254 25.7523 61.2118 25.6539 61.1249C25.3219 60.8342 24.7181 60.9027 24.3879 61.2669C24.081 61.6061 23.9859 62.1607 24.146 62.6803C24.4045 63.5273 25.3003 64.1472 26.1826 64.0903C26.186 64.0903 26.1893 64.0903 26.1943 64.0903Z" fill="black"/>
<path d="M26.1626 63.4202C26.0826 63.4202 26.0108 63.3617 25.9975 63.2799C25.9258 62.8422 25.5738 62.4663 25.1435 62.366C25.0534 62.346 24.9984 62.2558 25.0184 62.1655C25.0384 62.0753 25.1285 62.0202 25.2185 62.0402C25.779 62.1689 26.2344 62.6567 26.3278 63.2247C26.3428 63.3166 26.2811 63.4018 26.1893 63.4169C26.181 63.4169 26.171 63.4185 26.1626 63.4185V63.4202Z" fill="black"/>
</g>
<defs>
<clipPath id="clip0_183386_25514">
<rect width="208" height="139" fill="white"/>
</clipPath>
</defs>
</svg>


